<?xml version="1.0" encoding="iso-8859-1"?>
<!-- Generator: Adobe Illustrator 19.0.0, SVG Export Plug-In . SVG Version: 6.00 Build 0)  -->
<svg version="1.1" id="Layer_1" xmlns="http://www.w3.org/2000/svg" xmlns:xlink="http://www.w3.org/1999/xlink" x="0px" y="0px"
	 viewBox="0 0 512.175 512.175" style="enable-background:new 0 0 512.175 512.175;" xml:space="preserve">
<g transform="translate(-1)">
	<g>
		<g>
			<path d="M394.186,261.645l7.467-13.696c-15.121-6.588-17.545-7.066-18.441-7.211c-2.825-1.024-13.005-6.775-26.914-15.002
				l0.512-0.521c3.336-3.328,3.336-8.73,0-12.066c-3.337-3.328-8.73-3.328-12.066,0l-3.558,3.558
				c-7.006-4.215-14.473-8.755-22.153-13.449l1.647-1.638c3.328-3.337,3.328-8.738,0-12.066c-3.336-3.337-8.738-3.337-12.066,0
				l-4.531,4.531c-5.623-3.465-11.23-6.938-16.725-10.351l1.451-1.451c3.337-3.328,3.337-8.73,0-12.066
				c-3.328-3.328-8.73-3.328-12.066,0l-4.241,4.241c-22.409-14.046-40.704-25.796-45.73-29.568
				c-19.883-14.942-50.799,6.246-54.793,9.131c-2.927,2.458-5.751,4.736-8.516,6.929l180.463,112.145
				C360.983,283.806,383.503,278.643,394.186,261.645z"/>
			<path d="M129.178,278.653c50.56,0,81.758-10.906,85.214-17.067c-3.447-6.161-34.645-17.067-85.214-17.067
				c-51.575,0-83.004,11.341-85.385,17.425C46.174,267.304,77.611,278.653,129.178,278.653z M112.111,253.053h34.133
				c4.719,0,8.533,3.814,8.533,8.533s-3.814,8.533-8.533,8.533h-34.133c-4.719,0-8.533-3.814-8.533-8.533
				S107.392,253.053,112.111,253.053z"/>
			<path d="M478.931,280.537l-3.934-1.493c-14.379-5.453-29.244-11.102-43.324-17.57c-5.385-2.483-10.155-4.659-14.396-6.571
				l-8.371,15.36c-7.859,12.552-19.721,20.966-33.655,24.149c-3.994,0.913-8.021,1.365-12.023,1.365
				c-9.941,0-19.703-2.79-28.331-8.209L148.776,171.916c-35.686,25.028-55.245,25.847-64.358,23.484
				c-9.105-2.364-12.74-8.866-13.585-10.667c-2.074-12.416-6.349-28.612-18.935-31.565c-12.237-2.893-21.743,9.813-23.151,11.827
				c-45.389,75.324-23.868,138.368-13.329,160.751c-3.473,3.123-5.709,7.612-5.709,12.638v17.058
				c0,9.412,7.663,17.067,17.067,17.067l432.956-0.009c0.188,0.009,1.152,0.068,2.714,0.068c7.023,0,25.907-1.178,38.622-13.013
				c7.97-7.424,12.049-17.399,12.109-29.653v-0.026v-0.026C513.175,307.135,500.375,288.703,478.931,280.537z M129.175,227.451
				c38.033,0,102.4,7.194,102.4,34.133c0,26.948-64.367,34.133-102.4,34.133s-102.4-7.185-102.4-34.133
				C26.775,234.644,91.142,227.451,129.175,227.451z M489.478,347.02c-10.086,9.446-28.459,8.465-29.193,8.431l-433.51-0.009
				v-17.058h0.444H494.88C493.804,341.797,492.012,344.656,489.478,347.02z"/>
		</g>
	</g>
</g>
<g>
</g>
<g>
</g>
<g>
</g>
<g>
</g>
<g>
</g>
<g>
</g>
<g>
</g>
<g>
</g>
<g>
</g>
<g>
</g>
<g>
</g>
<g>
</g>
<g>
</g>
<g>
</g>
<g>
</g>
</svg>
